<?xml version="1.0" encoding="UTF-8"?>
<svg id="uuid-a1e0ff60-6890-4c66-b2a6-fa9645ac55f1" data-name="Layer_2" xmlns="http://www.w3.org/2000/svg" width="1092.6882" height="387.2082" viewBox="0 0 1092.6882 387.2082">
  <defs>
    <style>
      .uuid-c1071aa0-6177-4499-8a20-5d78763a156b {
        fill: #fff;
      }

      .uuid-c7d7d313-e707-4cb9-b21b-164aa487c327 {
        fill: #7685f7;
      }
    </style>
  </defs>
  <g id="uuid-27557c93-8c8c-4339-ae3c-f24a65d07e7c" data-name="Layer_1">
    <g>
      <rect class="uuid-c1071aa0-6177-4499-8a20-5d78763a156b" width="1092.6882" height="387.2082"/>
      <g>
        <g>
          <path d="M157.7295,245.8089v29.6206c0,4.3438-1.2876,7.7119-3.8608,10.105-2.5747,2.3926-6.5562,3.5894-11.9448,3.5894-4.1836,0-7.5815-.9351-10.1953-2.8052-2.6152-1.8701-4.063-4.5151-4.3438-7.9331h6.6357c.4019,1.729,1.3276,3.0664,2.7754,4.0122,1.4478.9443,3.3179,1.4175,5.6104,1.4175,5.9121,0,8.8682-2.876,8.8682-8.627v-3.4385c-2.2529,3.3784-5.6104,5.0674-10.0747,5.0674-2.8154,0-5.3296-.6333-7.541-1.9004-2.2124-1.2666-3.9419-3.0767-5.188-5.4292-1.2471-2.353-1.8701-5.1372-1.8701-8.3555,0-3.0967.6333-5.8311,1.9004-8.2046,1.2666-2.3726,3.0059-4.2124,5.2183-5.52,2.2114-1.3062,4.7056-1.9604,7.4805-1.9604,2.332,0,4.3438.4629,6.0327,1.3872,1.689.9258,3.0562,2.1929,4.1021,3.8008l.7241-4.8262h5.6709ZM148.8007,268.5223c1.6489-1.8701,2.4736-4.293,2.4736-7.2695,0-3.0562-.8247-5.5396-2.4736-7.4502-1.6494-1.9102-3.8213-2.8657-6.5151-2.8657s-4.8667.9453-6.5156,2.8354c-1.6494,1.8906-2.4731,4.3433-2.4731,7.3599s.8237,5.4697,2.4731,7.3599c1.6489,1.8911,3.8208,2.8354,6.5156,2.8354s4.8657-.9351,6.5151-2.8052Z"/>
          <path d="M164.8784,252.9578c1.2666-2.3926,3.0361-4.2427,5.3086-5.5503,2.2715-1.3062,4.876-1.9604,7.8125-1.9604,2.9756,0,5.6001.603,7.8726,1.8096,2.272,1.2065,4.062,2.9165,5.3691,5.1279,1.3066,2.2124,1.9805,4.8066,2.021,7.7822,0,.8052-.0601,1.6289-.1807,2.4736h-23.2866v.3618c.1602,2.6948,1.0049,4.8262,2.5337,6.3945,1.5278,1.5688,3.5596,2.353,6.0933,2.353,2.0103,0,3.6997-.4722,5.0674-1.418,1.3667-.9443,2.2715-2.2817,2.7148-4.0117h6.5151c-.5635,3.1372-2.0811,5.7114-4.5547,7.7222-2.4731,2.0112-5.5605,3.0161-9.2603,3.0161-3.2183,0-6.0234-.6533-8.4155-1.9604-2.3936-1.3066-4.2437-3.1465-5.5503-5.52-1.3071-2.3726-1.9604-5.1279-1.9604-8.2646,0-3.1768.6333-5.9624,1.9004-8.3555ZM186.6264,257.8743c-.2822-2.252-1.1768-4.0117-2.6846-5.2783-1.5083-1.2671-3.4087-1.9004-5.7012-1.9004-2.1323,0-3.9722.6538-5.52,1.9604-1.5488,1.3076-2.4434,3.0464-2.6846,5.2183h16.5903Z"/>
          <path d="M223.7573,248.8255c2.3125,2.2524,3.4688,5.8721,3.4688,10.8589v17.0122h-6.5757v-16.6504c0-2.9355-.624-5.1675-1.8701-6.6963-1.2471-1.5278-3.0767-2.2925-5.4897-2.2925-2.5742,0-4.5952.8955-6.063,2.6846-1.4683,1.79-2.2017,4.2529-2.2017,7.3901v15.5645h-6.5156v-30.8877h5.6709l.7241,4.042c2.332-2.9355,5.6299-4.4038,9.8936-4.4038,3.6592,0,6.6455,1.1265,8.9585,3.3784Z"/>
          <path d="M233.8916,252.9578c1.2666-2.3926,3.0361-4.2427,5.3086-5.5503,2.2715-1.3062,4.876-1.9604,7.8125-1.9604,2.9756,0,5.6001.603,7.8726,1.8096,2.272,1.2065,4.062,2.9165,5.3691,5.1279,1.3066,2.2124,1.9805,4.8066,2.021,7.7822,0,.8052-.0601,1.6289-.1807,2.4736h-23.2866v.3618c.1602,2.6948,1.0049,4.8262,2.5337,6.3945,1.5278,1.5688,3.5596,2.353,6.0933,2.353,2.0103,0,3.6997-.4722,5.0674-1.418,1.3667-.9443,2.2715-2.2817,2.7148-4.0117h6.5151c-.5635,3.1372-2.0811,5.7114-4.5547,7.7222-2.4731,2.0112-5.5605,3.0161-9.2603,3.0161-3.2183,0-6.0234-.6533-8.4155-1.9604-2.3936-1.3066-4.2437-3.1465-5.5503-5.52-1.3071-2.3726-1.9604-5.1279-1.9604-8.2646,0-3.1768.6333-5.9624,1.9004-8.3555ZM255.6396,257.8743c-.2822-2.252-1.1768-4.0117-2.6846-5.2783-1.5083-1.2671-3.4087-1.9004-5.7012-1.9004-2.1323,0-3.9722.6538-5.52,1.9604-1.5488,1.3076-2.4434,3.0464-2.6846,5.2183h16.5903Z"/>
          <path d="M284.5962,245.8089v6.0933h-2.8955c-2.6953,0-4.6455.8745-5.8521,2.624s-1.8096,3.9722-1.8096,6.666v15.5044h-6.5156v-30.8877h5.7915l.7241,4.645c.8838-1.4478,2.0303-2.5835,3.4385-3.4082,1.4072-.8237,3.2974-1.2368,5.6709-1.2368h1.4478Z"/>
          <path d="M317.1128,271.0257v5.6709h-3.4385c-2.0117,0-3.4595-.4224-4.3438-1.2671-.8853-.8442-1.3271-2.0708-1.3271-3.6797-2.333,3.5396-5.731,5.3086-10.1953,5.3086-3.4595,0-6.2344-.8037-8.3252-2.4131-2.0918-1.6079-3.1372-3.8203-3.1372-6.6357,0-3.1768,1.1255-5.6201,3.3784-7.3301,2.252-1.709,5.5293-2.564,9.8335-2.564h7.7822v-1.8701c0-1.7285-.6035-3.0859-1.8101-4.0718-1.2065-.9854-2.876-1.478-5.0068-1.478-1.8911,0-3.4492.4126-4.6758,1.2363-1.2271.8252-1.9604,1.9214-2.2017,3.2881h-6.395c.3218-3.0967,1.6895-5.499,4.1025-7.209,2.4131-1.709,5.5698-2.564,9.4712-2.564,4.1421,0,7.3394.9653,9.5923,2.8955,2.252,1.9307,3.3784,4.7056,3.3784,8.3252v12.186c0,1.4482.6831,2.1719,2.0508,2.1719h1.2671ZM307.3398,262.9417h-8.084c-2.0117,0-3.5591.3926-4.645,1.1768s-1.6289,1.9409-1.6289,3.4688c0,1.3271.5127,2.3931,1.5381,3.1973,1.0259.8052,2.4229,1.2065,4.1929,1.2065,2.6938,0,4.7959-.7241,6.3042-2.1719s2.2822-3.3784,2.3228-5.7915v-1.0859Z"/>
          <path d="M322.6626,251.5398h-5.3691v-5.731h5.3691v-8.627h6.5757v8.627h7.4204v5.731h-7.4204v16.1074c0,1.2065.2417,2.0615.7241,2.564.4824.5034,1.3066.7544,2.4736.7544h4.9468v5.731h-6.2744c-2.936,0-5.0776-.6836-6.4248-2.0513-1.3477-1.3667-2.021-3.478-2.021-6.3345v-16.771Z"/>
          <path d="M346.9741,234.5579c.7632.7446,1.146,1.6797,1.146,2.8052,0,1.1265-.3828,2.0615-1.146,2.8052-.7646.7446-1.71,1.1162-2.8354,1.1162-1.1265,0-2.0718-.3716-2.8354-1.1162-.7646-.7437-1.146-1.6787-1.146-2.8052,0-1.1255.3813-2.0605,1.146-2.8052.7637-.7437,1.709-1.1162,2.8354-1.1162,1.1255,0,2.0708.3726,2.8354,1.1162ZM340.8808,245.8089h6.5156v30.8877h-6.5156v-30.8877Z"/>
          <path d="M350.7138,245.8089h6.998l8.5063,23.8896,8.3853-23.8896h6.8774l-11.4019,30.8877h-7.9634l-11.4019-30.8877Z"/>
          <path d="M384.3466,252.9578c1.2666-2.3926,3.0361-4.2427,5.3086-5.5503,2.2715-1.3062,4.876-1.9604,7.8125-1.9604,2.9756,0,5.6001.603,7.8726,1.8096,2.272,1.2065,4.062,2.9165,5.3691,5.1279,1.3066,2.2124,1.9805,4.8066,2.021,7.7822,0,.8052-.0601,1.6289-.1807,2.4736h-23.2866v.3618c.1602,2.6948,1.0049,4.8262,2.5337,6.3945,1.5278,1.5688,3.5596,2.353,6.0933,2.353,2.0103,0,3.6997-.4722,5.0674-1.418,1.3667-.9443,2.2715-2.2817,2.7148-4.0117h6.5151c-.5635,3.1372-2.0811,5.7114-4.5547,7.7222-2.4731,2.0112-5.5605,3.0161-9.2603,3.0161-3.2183,0-6.0234-.6533-8.4155-1.9604-2.3936-1.3066-4.2437-3.1465-5.5503-5.52-1.3071-2.3726-1.9604-5.1279-1.9604-8.2646,0-3.1768.6333-5.9624,1.9004-8.3555ZM406.0947,257.8743c-.2822-2.252-1.1768-4.0117-2.6846-5.2783-1.5083-1.2671-3.4087-1.9004-5.7012-1.9004-2.1323,0-3.9722.6538-5.52,1.9604-1.5488,1.3076-2.4434,3.0464-2.6846,5.2183h16.5903Z"/>
          <path d="M457.4931,247.3475c2.2114,1.2666,3.9409,3.0869,5.188,5.4595,1.2461,2.3735,1.8701,5.188,1.8701,8.4458,0,3.0977-.624,5.8423-1.8701,8.2349-1.2471,2.3931-2.9766,4.2529-5.188,5.5801-2.2124,1.3271-4.7266,1.9907-7.541,1.9907-2.2925,0-4.2832-.4316-5.9722-1.2969-1.6895-.8643-3.0571-2.041-4.1025-3.5293l-.7842,4.4644h-5.6709v-42.229h6.5156v15.9263c2.4526-3.2974,5.7915-4.9468,10.0142-4.9468,2.8145,0,5.3286.6333,7.541,1.9004ZM455.4116,268.7034c1.6685-1.9102,2.5039-4.3936,2.5039-7.4507,0-3.0166-.8354-5.4795-2.5039-7.3901-1.6689-1.9097-3.8516-2.8657-6.5454-2.8657s-4.8667.9458-6.5151,2.8354c-1.6499,1.8911-2.4736,4.3438-2.4736,7.3599,0,3.0571.8237,5.5503,2.4736,7.481,1.6484,1.9302,3.8203,2.8955,6.5151,2.8955s4.8765-.9546,6.5454-2.8652Z"/>
          <path d="M486.8725,245.8089v6.0933h-2.8955c-2.6953,0-4.6455.8745-5.8521,2.624s-1.8096,3.9722-1.8096,6.666v15.5044h-6.5156v-30.8877h5.7915l.7241,4.645c.8838-1.4478,2.0303-2.5835,3.4385-3.4082,1.4072-.8237,3.2974-1.2368,5.6709-1.2368h1.4478Z"/>
          <path d="M519.3891,271.0257v5.6709h-3.4385c-2.0117,0-3.4595-.4224-4.3438-1.2671-.8853-.8442-1.3271-2.0708-1.3271-3.6797-2.333,3.5396-5.731,5.3086-10.1953,5.3086-3.4595,0-6.2344-.8037-8.3252-2.4131-2.0918-1.6079-3.1372-3.8203-3.1372-6.6357,0-3.1768,1.1255-5.6201,3.3784-7.3301,2.252-1.709,5.5293-2.564,9.8335-2.564h7.7822v-1.8701c0-1.7285-.6035-3.0859-1.8101-4.0718-1.2065-.9854-2.876-1.478-5.0068-1.478-1.8911,0-3.4492.4126-4.6758,1.2363-1.2271.8252-1.9604,1.9214-2.2017,3.2881h-6.395c.3218-3.0967,1.6895-5.499,4.1025-7.209,2.4131-1.709,5.5698-2.564,9.4712-2.564,4.1421,0,7.3394.9653,9.5923,2.8955,2.252,1.9307,3.3784,4.7056,3.3784,8.3252v12.186c0,1.4482.6831,2.1719,2.0508,2.1719h1.2671ZM509.6162,262.9417h-8.084c-2.0117,0-3.5591.3926-4.645,1.1768s-1.6289,1.9409-1.6289,3.4688c0,1.3271.5127,2.3931,1.5381,3.1973,1.0259.8052,2.4229,1.2065,4.1929,1.2065,2.6938,0,4.7959-.7241,6.3042-2.1719s2.2822-3.3784,2.3228-5.7915v-1.0859Z"/>
          <path d="M548.1953,248.8255c2.3125,2.2524,3.4688,5.8721,3.4688,10.8589v17.0122h-6.5762v-16.6504c0-2.9355-.624-5.1675-1.8701-6.6963-1.2471-1.5278-3.0762-2.2925-5.4893-2.2925-2.5742,0-4.5957.8955-6.0635,2.6846-1.4678,1.79-2.2012,4.2529-2.2012,7.3901v15.5645h-6.5161v-30.8877h5.6714l.7236,4.042c2.332-2.9355,5.6299-4.4038,9.8936-4.4038,3.6592,0,6.6455,1.1265,8.959,3.3784Z"/>
          <path d="M587.5586,234.4676v42.229h-5.6709l-.7842-4.645c-2.4541,3.3384-5.8125,5.0068-10.0752,5.0068-2.8154,0-5.3291-.6333-7.541-1.9004-2.2119-1.2666-3.9414-3.0962-5.1875-5.4897-1.2471-2.3921-1.8701-5.1973-1.8701-8.4155,0-3.1372.6328-5.9019,1.9004-8.2949,1.2666-2.3926,3.0059-4.2427,5.2178-5.5503,2.2119-1.3062,4.7061-1.9604,7.4805-1.9604,2.252,0,4.2236.4126,5.9121,1.2368,1.6895.8247,3.0566,1.9604,4.1025,3.4082v-15.6245h6.5156ZM578.6298,268.7332c1.6484-1.8896,2.4736-4.3433,2.4736-7.3599,0-3.0962-.8252-5.6001-2.4736-7.5107-1.6494-1.9097-3.8213-2.8657-6.5156-2.8657s-4.8662.9561-6.5156,2.8657c-1.6494,1.9106-2.4727,4.3735-2.4727,7.3901,0,3.0571.8232,5.5405,2.4727,7.4507,1.6494,1.9106,3.8213,2.8652,6.5156,2.8652s4.8662-.9443,6.5156-2.8354Z"/>
          <path d="M600.0459,234.5579c.7637.7446,1.1465,1.6797,1.1465,2.8052,0,1.1265-.3828,2.0615-1.1465,2.8052-.7646.7446-1.71,1.1162-2.835,1.1162-1.127,0-2.0723-.3716-2.8359-1.1162-.7646-.7437-1.1455-1.6787-1.1455-2.8052,0-1.1255.3809-2.0605,1.1455-2.8052.7637-.7437,1.709-1.1162,2.8359-1.1162,1.125,0,2.0703.3726,2.835,1.1162ZM593.9531,245.8089h6.5156v30.8877h-6.5156v-30.8877Z"/>
          <path d="M632.1093,248.8255c2.3125,2.2524,3.4688,5.8721,3.4688,10.8589v17.0122h-6.5752v-16.6504c0-2.9355-.624-5.1675-1.8701-6.6963-1.2471-1.5278-3.0771-2.2925-5.4902-2.2925-2.5742,0-4.5947.8955-6.0625,2.6846-1.4688,1.79-2.2021,4.2529-2.2021,7.3901v15.5645h-6.5156v-30.8877h5.6709l.7236,4.042c2.332-2.9355,5.6309-4.4038,9.8936-4.4038,3.6592,0,6.6455,1.1265,8.959,3.3784Z"/>
          <path d="M671.4726,245.8089v29.6206c0,4.3438-1.2871,7.7119-3.8604,10.105-2.5742,2.3926-6.5557,3.5894-11.9453,3.5894-4.1826,0-7.5811-.9351-10.1953-2.8052s-4.0625-4.5151-4.3438-7.9331h6.6367c.4014,1.729,1.3271,3.0664,2.7744,4.0122,1.4482.9443,3.3184,1.4175,5.6113,1.4175,5.9111,0,8.8672-2.876,8.8672-8.627v-3.4385c-2.252,3.3784-5.6104,5.0674-10.0742,5.0674-2.8154,0-5.3291-.6333-7.541-1.9004-2.2119-1.2666-3.9424-3.0767-5.1885-5.4292-1.2471-2.353-1.8701-5.1372-1.8701-8.3555,0-3.0967.6338-5.8311,1.9004-8.2046,1.2676-2.3726,3.0059-4.2124,5.2188-5.52,2.2109-1.3062,4.7051-1.9604,7.4805-1.9604,2.332,0,4.3438.4629,6.0332,1.3872,1.6885.9258,3.0557,2.1929,4.1016,3.8008l.7246-4.8262h5.6699ZM662.5449,268.5223c1.6484-1.8701,2.4727-4.293,2.4727-7.2695,0-3.0562-.8242-5.5396-2.4727-7.4502-1.6494-1.9102-3.8213-2.8657-6.5156-2.8657s-4.8672.9453-6.5156,2.8354c-1.6494,1.8906-2.4736,4.3433-2.4736,7.3599s.8242,5.4697,2.4736,7.3599c1.6484,1.8911,3.8203,2.8354,6.5156,2.8354s4.8662-.9351,6.5156-2.8052Z"/>
          <path d="M684.8046,270.9051c1.0049,1.3271,1.5088,2.9771,1.5088,4.9468,0,2.896-.8652,5.1479-2.5947,6.7568-1.7295,1.6079-4.1016,2.4331-7.1182,2.4736v-3.499c1.7695-.0405,3.0967-.5034,3.9814-1.3877.8838-.8853,1.3271-1.9307,1.3271-3.1372,0-.3618-.0205-.623-.0605-.7842-.5225.4023-1.1865.6035-1.9902.6035-1.0469,0-1.9004-.332-2.5645-.9956-.6631-.6636-.9951-1.6187-.9951-2.8657,0-1.166.4219-2.1416,1.2666-2.9258s1.9502-1.1763,3.3184-1.1763c1.6084,0,2.915.6636,3.9209,1.9907Z"/>
          <path d="M713.1884,275.0979c-2.3926-1.3066-4.2432-3.1567-5.5498-5.5503-1.3076-2.3921-1.9609-5.1577-1.9609-8.2949,0-3.0967.6533-5.8413,1.9609-8.2349,1.3066-2.3921,3.1572-4.2529,5.5498-5.5801s5.1377-1.9907,8.2354-1.9907,5.8408.6636,8.2344,1.9907c2.3926,1.3271,4.2432,3.188,5.5498,5.5801,1.3066,2.3936,1.9609,5.1382,1.9609,8.2349,0,3.1372-.6543,5.9028-1.9609,8.2949-1.3066,2.3936-3.1572,4.2437-5.5498,5.5503-2.3936,1.3071-5.1377,1.9604-8.2344,1.9604s-5.8428-.6533-8.2354-1.9604ZM728.0293,268.6429c1.6689-1.9097,2.5039-4.3735,2.5039-7.3901s-.835-5.4795-2.5039-7.3901c-1.6689-1.9097-3.8711-2.8657-6.6055-2.8657s-4.9277.9561-6.5762,2.8657c-1.6494,1.9106-2.4736,4.3735-2.4736,7.3901s.8242,5.4805,2.4736,7.3901c1.6484,1.9106,3.8408,2.8657,6.5762,2.8657s4.9365-.9551,6.6055-2.8657Z"/>
          <path d="M766.4873,247.3475c2.2119,1.2666,3.9414,3.0972,5.1885,5.4897,1.2461,2.3931,1.8701,5.1982,1.8701,8.4155,0,3.1372-.624,5.9028-1.8701,8.2949-1.2471,2.3936-2.9766,4.2437-5.1885,5.5503-2.2119,1.3071-4.7256,1.9604-7.54,1.9604-2.293,0-4.2842-.4224-5.9727-1.2666-1.6895-.8447-3.0371-1.9907-4.042-3.439v16.4092h-6.5156v-42.9531h5.6709l.7842,4.585c2.4932-3.2974,5.8516-4.9468,10.0752-4.9468,2.8145,0,5.3281.6333,7.54,1.9004ZM764.4062,268.6731c1.6689-1.9307,2.5039-4.4038,2.5039-7.4204,0-3.0562-.835-5.5293-2.5039-7.4204-1.6689-1.8896-3.8516-2.8354-6.5449-2.8354-2.6953,0-4.8672.9351-6.5156,2.8057-1.6494,1.8701-2.4736,4.313-2.4736,7.3296,0,3.0972.8242,5.6104,2.4736,7.541,1.6484,1.9302,3.8203,2.8955,6.5156,2.8955,2.6934,0,4.876-.9653,6.5449-2.8955Z"/>
          <path d="M779.5478,252.9578c1.2676-2.3926,3.0361-4.2427,5.3096-5.5503,2.2715-1.3062,4.876-1.9604,7.8115-1.9604,2.9766,0,5.6006.603,7.873,1.8096,2.2715,1.2065,4.0615,2.9165,5.3691,5.1279,1.3066,2.2124,1.9805,4.8066,2.0215,7.7822,0,.8052-.0605,1.6289-.1816,2.4736h-23.2861v.3618c.1602,2.6948,1.0049,4.8262,2.5342,6.3945,1.5273,1.5688,3.5586,2.353,6.0928,2.353,2.0107,0,3.6992-.4722,5.0674-1.418,1.3672-.9443,2.2715-2.2817,2.7148-4.0117h6.5156c-.5645,3.1372-2.082,5.7114-4.5547,7.7222-2.4736,2.0112-5.5605,3.0161-9.2607,3.0161-3.2178,0-6.0234-.6533-8.416-1.9604-2.3926-1.3066-4.2432-3.1465-5.5498-5.52-1.3076-2.3726-1.9609-5.1279-1.9609-8.2646,0-3.1768.6338-5.9624,1.9004-8.3555ZM801.2959,257.8743c-.2812-2.252-1.1758-4.0117-2.6846-5.2783-1.5078-1.2671-3.4082-1.9004-5.7002-1.9004-2.1328,0-3.9727.6538-5.5205,1.9604-1.5488,1.3076-2.4434,3.0464-2.6846,5.2183h16.5898Z"/>
          <path d="M838.4277,248.8255c2.3125,2.2524,3.4688,5.8721,3.4688,10.8589v17.0122h-6.5752v-16.6504c0-2.9355-.624-5.1675-1.8701-6.6963-1.2471-1.5278-3.0771-2.2925-5.4902-2.2925-2.5742,0-4.5947.8955-6.0625,2.6846-1.4688,1.79-2.2021,4.2529-2.2021,7.3901v15.5645h-6.5156v-30.8877h5.6709l.7236,4.042c2.332-2.9355,5.6309-4.4038,9.8936-4.4038,3.6592,0,6.6455,1.1265,8.959,3.3784Z"/>
          <path d="M865.2431,251.5398h-5.3691v-5.731h5.3691v-8.627h6.5752v8.627h7.4209v5.731h-7.4209v16.1074c0,1.2065.2412,2.0615.7236,2.564.4834.5034,1.3066.7544,2.4736.7544h4.9473v5.731h-6.2744c-2.9355,0-5.0781-.6836-6.4248-2.0513-1.3477-1.3667-2.0205-3.478-2.0205-6.3345v-16.771Z"/>
          <path d="M889.1621,275.0979c-2.3926-1.3066-4.2432-3.1567-5.5498-5.5503-1.3076-2.3921-1.9609-5.1577-1.9609-8.2949,0-3.0967.6533-5.8413,1.9609-8.2349,1.3066-2.3921,3.1572-4.2529,5.5498-5.5801s5.1377-1.9907,8.2354-1.9907,5.8408.6636,8.2344,1.9907c2.3926,1.3271,4.2432,3.188,5.5498,5.5801,1.3066,2.3936,1.9609,5.1382,1.9609,8.2349,0,3.1372-.6543,5.9028-1.9609,8.2949-1.3066,2.3936-3.1572,4.2437-5.5498,5.5503-2.3936,1.3071-5.1377,1.9604-8.2344,1.9604s-5.8428-.6533-8.2354-1.9604ZM904.0029,268.6429c1.6689-1.9097,2.5039-4.3735,2.5039-7.3901s-.835-5.4795-2.5039-7.3901c-1.6689-1.9097-3.8711-2.8657-6.6055-2.8657s-4.9277.9561-6.5762,2.8657c-1.6494,1.9106-2.4736,4.3735-2.4736,7.3901s.8242,5.4805,2.4736,7.3901c1.6484,1.9106,3.8408,2.8657,6.5762,2.8657s4.9365-.9551,6.6055-2.8657Z"/>
          <path d="M963.3945,271.0257v5.6709h-3.4385c-2.0117,0-3.46-.4224-4.3438-1.2671-.8848-.8442-1.3271-2.0708-1.3271-3.6797-2.333,3.5396-5.7314,5.3086-10.1953,5.3086-3.46,0-6.2344-.8037-8.3252-2.4131-2.0918-1.6079-3.1367-3.8203-3.1367-6.6357,0-3.1768,1.125-5.6201,3.3779-7.3301,2.252-1.709,5.5293-2.564,9.833-2.564h7.7822v-1.8701c0-1.7285-.6025-3.0859-1.8096-4.0718-1.2061-.9854-2.876-1.478-5.0068-1.478-1.8906,0-3.4492.4126-4.6758,1.2363-1.2275.8252-1.96,1.9214-2.2021,3.2881h-6.3945c.3213-3.0967,1.6895-5.499,4.1025-7.209,2.4131-1.709,5.5703-2.564,9.4717-2.564,4.1416,0,7.3389.9653,9.5918,2.8955,2.252,1.9307,3.3779,4.7056,3.3779,8.3252v12.186c0,1.4482.6836,2.1719,2.0518,2.1719h1.2666ZM953.6211,262.9417h-8.083c-2.0117,0-3.5596.3926-4.6455,1.1768s-1.6289,1.9409-1.6289,3.4688c0,1.3271.5127,2.3931,1.5381,3.1973,1.0254.8052,2.4229,1.2065,4.1934,1.2065,2.6934,0,4.7959-.7241,6.3037-2.1719s2.2822-3.3784,2.3223-5.7915v-1.0859Z"/>
          <path d="M966.9541,234.4676h6.5156v42.229h-6.5156v-42.229Z"/>
          <path d="M979.8632,234.4676h6.5156v42.229h-6.5156v-42.229Z"/>
          <path d="M993.3457,270.0003c.7842-.7637,1.7793-1.1465,2.9863-1.1465,1.2061,0,2.2109.3828,3.0166,1.1465.8037.7642,1.2061,1.7495,1.2061,2.9561s-.4023,2.1924-1.2061,2.9561c-.8057.7642-1.8105,1.146-3.0166,1.146-1.207,0-2.2021-.3818-2.9863-1.146-.7842-.7637-1.1768-1.7495-1.1768-2.9561s.3926-2.1919,1.1768-2.9561Z"/>
        </g>
        <g>
          <rect class="uuid-c7d7d313-e707-4cb9-b21b-164aa487c327" x="840.9389" y="301.8451" width="159.3149" height="28.66"/>
          <g>
            <path class="uuid-c1071aa0-6177-4499-8a20-5d78763a156b" d="M852.6259,310.5724c.1885.1841.2822.4146.2822.6924s-.0938.5083-.2822.6919-.4219.2754-.6992.2754c-.2783,0-.5117-.0918-.7002-.2754s-.2822-.4141-.2822-.6919.0938-.5083.2822-.6924c.1885-.1831.4219-.2749.7002-.2749.2773,0,.5107.0918.6992.2749ZM851.123,313.3477h1.6064v7.6196h-1.6064v-7.6196Z"/>
            <path class="uuid-c1071aa0-6177-4499-8a20-5d78763a156b" d="M860.5351,314.0919c.5703.5557.8555,1.4487.8555,2.6787v4.1968h-1.6221v-4.1074c0-.7241-.1533-1.2744-.4609-1.6519-.3076-.377-.7588-.5654-1.3545-.5654-.6348,0-1.1338.2207-1.4951.6621-.3623.4419-.5439,1.0493-.5439,1.8232v3.8394h-1.6064v-7.6196h1.3984l.1787.9971c.5752-.7236,1.3887-1.0859,2.4404-1.0859.9023,0,1.6396.2778,2.21.833Z"/>
            <path class="uuid-c1071aa0-6177-4499-8a20-5d78763a156b" d="M864.3525,310.5724c.1885.1841.2822.4146.2822.6924s-.0938.5083-.2822.6919-.4219.2754-.6992.2754c-.2783,0-.5117-.0918-.7002-.2754s-.2822-.4141-.2822-.6919.0938-.5083.2822-.6924c.1885-.1831.4219-.2749.7002-.2749.2773,0,.5107.0918.6992.2749ZM862.8496,313.3477h1.6064v7.6196h-1.6064v-7.6196Z"/>
            <path class="uuid-c1071aa0-6177-4499-8a20-5d78763a156b" d="M866.5253,314.7618h-1.3252v-1.4141h1.3252v-2.1279h1.6221v2.1279h1.8301v1.4141h-1.8301v3.9731c0,.2979.0596.5088.1777.6328.1191.124.3223.186.6104.186h1.2207v1.4136h-1.5479c-.7246,0-1.2529-.1685-1.585-.5059s-.498-.8579-.498-1.5625v-4.1372Z"/>
            <path class="uuid-c1071aa0-6177-4499-8a20-5d78763a156b" d="M872.5224,310.5724c.1885.1841.2822.4146.2822.6924s-.0938.5083-.2822.6919-.4219.2754-.6992.2754c-.2783,0-.5117-.0918-.7002-.2754s-.2822-.4141-.2822-.6919.0938-.5083.2822-.6924c.1885-.1831.4219-.2749.7002-.2749.2773,0,.5107.0918.6992.2749ZM871.0195,313.3477h1.6064v7.6196h-1.6064v-7.6196Z"/>
            <path class="uuid-c1071aa0-6177-4499-8a20-5d78763a156b" d="M881.4961,319.5684v1.3989h-.8486c-.4961,0-.8535-.104-1.0713-.3125-.2188-.2085-.3271-.5107-.3271-.9077-.5762.873-1.4141,1.3096-2.5156,1.3096-.8535,0-1.5381-.1982-2.0537-.5952s-.7734-.9424-.7734-1.6372c0-.7837.2773-1.3862.833-1.8081.5557-.4214,1.3643-.6323,2.4258-.6323h1.9199v-.4614c0-.4263-.1484-.7612-.4463-1.0044s-.71-.3647-1.2354-.3647c-.4668,0-.8506.1021-1.1533.3052-.3027.2036-.4834.4736-.543.811h-1.5781c.0801-.7637.417-1.3564,1.0127-1.7783.5947-.4214,1.374-.6323,2.3359-.6323,1.0215,0,1.8105.2378,2.3662.7144.5557.4761.834,1.1606.834,2.0532v3.0063c0,.3569.168.5356.5059.5356h.3125ZM879.0849,317.5743h-1.9941c-.4961,0-.8779.0967-1.1455.29-.2686.1938-.4023.479-.4023.856,0,.3271.127.5903.3799.7886.2529.1987.5977.2979,1.0342.2979.6641,0,1.1826-.1787,1.5547-.5356.3721-.3574.5635-.8335.5732-1.4287v-.2681Z"/>
            <path class="uuid-c1071aa0-6177-4499-8a20-5d78763a156b" d="M882.8652,314.7618h-1.3252v-1.4141h1.3252v-2.1279h1.6221v2.1279h1.8301v1.4141h-1.8301v3.9731c0,.2979.0596.5088.1777.6328.1191.124.3223.186.6104.186h1.2207v1.4136h-1.5479c-.7246,0-1.2529-.1685-1.585-.5059s-.498-.8579-.498-1.5625v-4.1372Z"/>
            <path class="uuid-c1071aa0-6177-4499-8a20-5d78763a156b" d="M887.3808,315.1114c.3125-.5903.749-1.0464,1.3096-1.3691.5605-.3223,1.2031-.4834,1.9277-.4834.7334,0,1.3809.1484,1.9414.4463.5605.2974,1.002.7192,1.3242,1.2651.3232.5454.4893,1.1855.499,1.9194,0,.1987-.0146.4019-.0449.6104h-5.7441v.0894c.04.6646.248,1.1904.625,1.5771.377.3872.8779.5806,1.5029.5806.4961,0,.9131-.1167,1.25-.3496.3379-.2334.5605-.563.6699-.9897h1.6074c-.1396.7739-.5137,1.4087-1.124,1.9048-.6094.4961-1.3711.7441-2.2842.7441-.7939,0-1.4854-.1611-2.0762-.4839-.5898-.3223-1.0469-.7759-1.3691-1.3613s-.4834-1.2651-.4834-2.0391c0-.7837.1562-1.4707.4688-2.061ZM892.7461,316.3243c-.0693-.5557-.29-.9897-.6621-1.3022s-.8408-.4688-1.4062-.4688c-.5264,0-.9805.1616-1.3623.4839s-.6025.7515-.6621,1.2871h4.0928Z"/>
            <path class="uuid-c1071aa0-6177-4499-8a20-5d78763a156b" d="M903.0732,310.5504v10.417h-1.3984l-.1934-1.146c-.6055.8237-1.4336,1.2354-2.4854,1.2354-.6943,0-1.3145-.1562-1.8604-.4688s-.9727-.7642-1.2793-1.3545c-.3076-.5898-.4619-1.2817-.4619-2.0757,0-.7739.1562-1.4561.4688-2.0464s.7412-1.0464,1.2871-1.3691c.5459-.3223,1.1611-.4834,1.8457-.4834.5557,0,1.042.1016,1.458.3047.417.2036.7539.4839,1.0127.8408v-3.854h1.6064ZM900.8711,319.003c.4062-.4663.6104-1.0713.6104-1.8154,0-.7642-.2041-1.3813-.6104-1.853-.4072-.4712-.9424-.7065-1.6074-.7065s-1.2002.2354-1.6074.7065c-.4062.4717-.6094,1.0791-.6094,1.8232,0,.7539.2031,1.3667.6094,1.8379.4072.4712.9424.7065,1.6074.7065s1.2002-.2329,1.6074-.6992Z"/>
            <path class="uuid-c1071aa0-6177-4499-8a20-5d78763a156b" d="M914.3984,313.7276c.5459.3125.9717.7612,1.2793,1.3467s.4619,1.2798.4619,2.0835c0,.7642-.1543,1.4409-.4619,2.0312s-.7334,1.0493-1.2793,1.3765c-.5459.3276-1.166.4912-1.8604.4912-.5654,0-1.0566-.1064-1.4736-.3198-.416-.2134-.7539-.5034-1.0117-.8706l-.1934,1.1011h-1.3984v-10.417h1.6064v3.9287c.6055-.8135,1.4287-1.2202,2.4707-1.2202.6943,0,1.3145.1562,1.8604.4688ZM913.8847,318.9957c.4121-.4712.6182-1.084.6182-1.8379,0-.7441-.2061-1.3516-.6182-1.8232-.4111-.4712-.9502-.7065-1.6143-.7065-.665,0-1.2012.2329-1.6074.6992-.4072.4663-.6104,1.0713-.6104,1.8154,0,.7544.2031,1.3691.6104,1.8452.4062.4766.9424.7144,1.6074.7144.6641,0,1.2031-.2354,1.6143-.7065Z"/>
            <path class="uuid-c1071aa0-6177-4499-8a20-5d78763a156b" d="M918.0888,313.3477l2.1279,5.8784,2.0684-5.8784h1.7119l-3.4531,8.8101c-.1787.4565-.3418.8062-.4912,1.0493-.1484.2432-.332.4263-.5498.5508-.2188.1235-.5117.186-.8779.186h-1.7266v-1.4141h1.1309c.3076,0,.5205-.0474.6396-.1411.1191-.0947.2432-.3052.3721-.6328l.3125-.729-2.9766-7.6792h1.7119Z"/>
            <path class="uuid-c1071aa0-6177-4499-8a20-5d78763a156b" d="M928.789,310.5504h2.2178l3.333,8.1997,3.2744-8.1997h2.1729v10.417h-1.6523v-7.6641l-3.125,7.6641h-1.4434l-3.125-7.6641v7.6641h-1.6523v-10.417Z"/>
            <path class="uuid-c1071aa0-6177-4499-8a20-5d78763a156b" d="M948.3574,313.3477v7.6196h-1.4131l-.1787-.9673c-.5762.7046-1.3594,1.0566-2.3516,1.0566-.8926,0-1.6172-.2778-2.1729-.8335s-.833-1.4482-.833-2.6787v-4.1968h1.6074v4.0332c0,.7441.1484,1.3096.4463,1.6963.2969.3872.7383.5806,1.3242.5806.6152,0,1.0957-.2256,1.4434-.6772.3477-.4512.5205-1.0688.5205-1.8525v-3.7803h1.6074Z"/>
            <path class="uuid-c1071aa0-6177-4499-8a20-5d78763a156b" d="M949.9355,310.5504h1.6064v10.417h-1.6064v-10.417Z"/>
            <path class="uuid-c1071aa0-6177-4499-8a20-5d78763a156b" d="M953.1201,311.2198h1.6064v2.1279h1.8457v1.4141h-1.8457v3.9731c0,.2979.0596.5088.1787.6328s.3223.186.6104.186h1.2207v1.4136h-1.5479c-.7246,0-1.25-.1685-1.5771-.5059-.3281-.3374-.4912-.8579-.4912-1.5625v-7.6792Z"/>
            <path class="uuid-c1071aa0-6177-4499-8a20-5d78763a156b" d="M959.1171,310.5724c.1885.1841.2822.4146.2822.6924s-.0938.5083-.2822.6919-.4219.2754-.6992.2754c-.2783,0-.5117-.0918-.7002-.2754s-.2822-.4141-.2822-.6919.0938-.5083.2822-.6924c.1885-.1831.4219-.2749.7002-.2749.2773,0,.5107.0918.6992.2749ZM957.6142,313.3477h1.6064v7.6196h-1.6064v-7.6196Z"/>
            <path class="uuid-c1071aa0-6177-4499-8a20-5d78763a156b" d="M961.29,314.7618h-1.3252v-1.4141h1.3252v-2.1279h1.6221v2.1279h1.8301v1.4141h-1.8301v3.9731c0,.2979.0596.5088.1777.6328.1191.124.3223.186.6104.186h1.2207v1.4136h-1.5479c-.7246,0-1.2529-.1685-1.585-.5059s-.498-.8579-.498-1.5625v-4.1372Z"/>
            <path class="uuid-c1071aa0-6177-4499-8a20-5d78763a156b" d="M972.6142,313.3477v7.6196h-1.4131l-.1787-.9673c-.5762.7046-1.3594,1.0566-2.3516,1.0566-.8926,0-1.6172-.2778-2.1729-.8335s-.833-1.4482-.833-2.6787v-4.1968h1.6074v4.0332c0,.7441.1484,1.3096.4463,1.6963.2969.3872.7383.5806,1.3242.5806.6152,0,1.0957-.2256,1.4434-.6772.3477-.4512.5205-1.0688.5205-1.8525v-3.7803h1.6074Z"/>
            <path class="uuid-c1071aa0-6177-4499-8a20-5d78763a156b" d="M981.5869,310.5504v10.417h-1.3984l-.1934-1.146c-.6055.8237-1.4336,1.2354-2.4854,1.2354-.6943,0-1.3145-.1562-1.8604-.4688s-.9727-.7642-1.2793-1.3545c-.3076-.5898-.4619-1.2817-.4619-2.0757,0-.7739.1562-1.4561.4688-2.0464s.7412-1.0464,1.2871-1.3691c.5459-.3223,1.1611-.4834,1.8457-.4834.5557,0,1.042.1016,1.458.3047.417.2036.7539.4839,1.0127.8408v-3.854h1.6064ZM979.3847,319.003c.4062-.4663.6104-1.0713.6104-1.8154,0-.7642-.2041-1.3813-.6104-1.853-.4072-.4712-.9424-.7065-1.6074-.7065s-1.2002.2354-1.6074.7065c-.4062.4717-.6094,1.0791-.6094,1.8232,0,.7539.2031,1.3667.6094,1.8379.4072.4712.9424.7065,1.6074.7065s1.2002-.2329,1.6074-.6992Z"/>
            <path class="uuid-c1071aa0-6177-4499-8a20-5d78763a156b" d="M983.3505,315.1114c.3125-.5903.749-1.0464,1.3096-1.3691.5605-.3223,1.2031-.4834,1.9277-.4834.7334,0,1.3809.1484,1.9414.4463.5605.2974,1.002.7192,1.3242,1.2651.3232.5454.4893,1.1855.499,1.9194,0,.1987-.0146.4019-.0449.6104h-5.7441v.0894c.04.6646.248,1.1904.625,1.5771.377.3872.8779.5806,1.5029.5806.4961,0,.9131-.1167,1.25-.3496.3379-.2334.5605-.563.6699-.9897h1.6074c-.1396.7739-.5137,1.4087-1.124,1.9048-.6094.4961-1.3711.7441-2.2842.7441-.7939,0-1.4854-.1611-2.0762-.4839-.5898-.3223-1.0469-.7759-1.3691-1.3613s-.4834-1.2651-.4834-2.0391c0-.7837.1562-1.4707.4688-2.061ZM988.7158,316.3243c-.0693-.5557-.29-.9897-.6621-1.3022s-.8408-.4688-1.4062-.4688c-.5264,0-.9805.1616-1.3623.4839s-.6025.7515-.6621,1.2871h4.0928Z"/>
          </g>
        </g>
        <g>
          <path d="M154.1944,129.0064c6.2319,3.4814,11.1167,8.5347,14.6538,15.1587,3.5371,6.6274,5.3057,14.4858,5.3057,23.5806,0,8.6484-1.7686,16.2832-5.3057,22.9072-3.5371,6.627-8.4507,11.791-14.7378,15.4961-6.29,3.7061-13.3643,5.5586-21.2231,5.5586-6.9634,0-12.9141-1.2637-17.854-3.79-4.9424-2.5264-8.8164-5.9795-11.6216-10.3584v46.8242h-13.812v-119.5879h11.959l1.853,13.8115c7.1846-9.8799,17.0117-14.8223,29.4756-14.8223,7.9717,0,15.0752,1.7422,21.3071,5.2217ZM152.1734,190.5689c5.2212-5.8955,7.832-13.501,7.832-22.8232s-2.6108-16.9277-7.832-22.8223c-5.2217-5.8955-12.1011-8.8428-20.6333-8.8428-5.5034,0-10.4165,1.3208-14.7383,3.958-4.3237,2.6396-7.6636,6.3452-10.0215,11.1172-2.3584,4.7734-3.5371,10.1895-3.5371,16.2529,0,6.1777,1.1787,11.707,3.5371,16.5908,2.3579,4.8848,5.6978,8.6748,10.0215,11.3701,4.3218,2.6943,9.2349,4.042,14.7383,4.042,8.5322,0,15.4116-2.9473,20.6333-8.8428Z"/>
          <path d="M254.3277,136.7539c5.8369,3.3691,10.3848,8.0298,13.6431,13.9805,3.2554,5.9526,4.8843,12.8013,4.8843,20.5483,0,8.4219-1.8525,15.665-5.5581,21.7285s-8.7031,10.6689-14.9907,13.8115c-6.29,3.1445-13.1958,4.7158-20.7173,4.7158-8.5352,0-15.9463-1.6553-22.2334-4.9688-6.29-3.3105-11.1455-7.832-14.5693-13.5586-3.4268-5.7266-5.3638-12.0693-5.811-19.0332h14.1484c.6738,7.0742,3.5635,12.998,8.6743,17.7695,5.1084,4.7744,11.7061,7.1592,19.791,7.1592,4.7163,0,9.1216-1.0371,13.2222-3.1162,4.0977-2.0762,7.3818-5.1924,9.853-9.3486,2.4688-4.1523,3.7056-9.1504,3.7056-14.9902,0-8.085-2.4155-14.6543-7.2427-19.707-4.8291-5.0527-11.2847-7.5796-19.3696-7.5796-5.2793,0-10.501,1.124-15.6646,3.3687-5.166,2.2476-8.8716,6.459-11.1167,12.6328l-13.6431-.3369,3.874-67.0366h70.0688v12.9692h-57.0996l-2.6948,38.7397c3.4795-4.4897,7.832-7.748,13.0537-9.769s10.5273-3.0317,15.917-3.0317c7.4111,0,14.0352,1.6841,19.8755,5.0527Z"/>
          <path class="uuid-c7d7d313-e707-4cb9-b21b-164aa487c327" d="M334.5015,92.793c13.6982,0,24.3096,2.6948,31.834,8.0845,7.5215,5.3901,11.2852,13.0273,11.2852,22.9072,0,7.3008-2.0215,13.1958-6.0645,17.6855-4.0415,4.4927-9.7686,7.4111-17.1797,8.7588,8.7588,1.124,15.5215,3.9316,20.2969,8.4219,4.7715,4.4922,7.1582,10.7793,7.1582,18.8643,0,10.332-3.9316,18.4434-11.791,24.3389-7.8608,5.8955-18.9775,8.8428-33.3496,8.8428h-46.9932v-117.9038h44.8037ZM314.963,141.3018h20.2124c5.3896,0,9.6006-1.2896,12.6323-3.874,3.0317-2.5815,4.5479-6.0635,4.5479-10.4429s-1.5161-7.8584-4.5479-10.4429c-3.0317-2.5815-7.2427-3.874-12.6323-3.874h-20.2124v28.6338ZM314.963,190.6529h21.8965c6.0635,0,10.751-1.2891,14.0645-3.874,3.3105-2.5811,4.9688-6.1738,4.9688-10.7793,0-4.8271-1.6846-8.5615-5.0532-11.2012-3.3687-2.6367-8.0293-3.958-13.98-3.958h-21.8965v29.8125Z"/>
          <path class="uuid-c7d7d313-e707-4cb9-b21b-164aa487c327" d="M449.3736,124.1216v21.5596h-9.4326c-6.7373,0-11.6797,2.021-14.8223,6.0635-3.1455,4.043-4.7158,9.5459-4.7158,16.5068v42.4453h-23.75v-86.5752h21.5596l2.1904,12.9692c2.5811-4.2661,5.7812-7.4951,9.6006-9.6846,3.8154-2.1899,8.9268-3.2847,15.3271-3.2847h4.043Z"/>
          <path class="uuid-c7d7d313-e707-4cb9-b21b-164aa487c327" d="M542.6851,190.6529v20.0439h-12.1279c-10.8926,0-16.2275-4.7158-16.001-14.1484-3.1455,4.9424-7.0186,8.7031-11.6221,11.2852-4.6055,2.584-10.1641,3.874-16.6748,3.874-9.6592,0-17.4326-2.2158-23.3281-6.6533-5.8955-4.4346-8.8428-10.6953-8.8428-18.7803,0-9.2061,3.3945-16.3096,10.1904-21.3066,6.792-4.9951,16.6455-7.4961,29.5596-7.4961h17.1807v-4.2109c0-3.9287-1.4609-7.0449-4.3789-9.3477-2.9219-2.3003-6.8506-3.4531-11.791-3.4531-4.3789,0-7.9746.9556-10.7793,2.8638-2.8086,1.9106-4.4932,4.4922-5.0537,7.7485h-22.9062c.7842-8.8696,4.7158-15.7495,11.79-20.6338,7.0742-4.8848,16.4482-7.3271,28.1289-7.3271,12.2373,0,21.6982,2.6953,28.3809,8.085,6.6797,5.3901,10.0215,13.1958,10.0215,23.4121v30.4873c0,2.1338.4473,3.5947,1.3477,4.3789.8975.7871,2.2998,1.1787,4.2109,1.1787h2.6953ZM511.0191,173.3042h-17.3486c-4.9424,0-8.7881.9844-11.5381,2.9482-2.7529,1.9658-4.126,4.7451-4.126,8.3369,0,3.0322,1.1494,5.4482,3.4521,7.2432,2.3008,1.7969,5.416,2.6943,9.3486,2.6943,6.1738,0,11.0586-1.7686,14.6533-5.3057,3.5928-3.5371,5.4453-8.2793,5.5586-14.2324v-1.6846Z"/>
          <path class="uuid-c7d7d313-e707-4cb9-b21b-164aa487c327" d="M626.5631,132.5435c6.5107,6.29,9.7686,16.6748,9.7686,31.1602v46.9932h-23.749v-45.6455c0-14.9331-5.8398-22.4019-17.5176-22.4019-6.1768,0-10.9482,2.0791-14.3164,6.2319-3.3691,4.1553-5.0527,9.9951-5.0527,17.5176v44.2979h-23.75v-86.5752h20.7178l2.1895,10.7798c3.0322-3.7056,6.6797-6.5952,10.9482-8.6743,4.2666-2.0767,9.543-3.1162,15.833-3.1162,10.1064,0,18.415,3.145,24.9287,9.4326Z"/>
          <path class="uuid-c7d7d313-e707-4cb9-b21b-164aa487c327" d="M737.8971,92.793v117.9038h-20.7168l-2.3584-11.959c-6.627,8.6484-15.6094,12.9697-26.9492,12.9697-7.6377,0-14.4854-1.8242-20.5488-5.4746-6.0645-3.6475-10.8096-8.8428-14.2334-15.5801-3.4258-6.7373-5.1367-14.54-5.1367-23.4121,0-8.7588,1.7109-16.4775,5.1367-23.1597,3.4238-6.6797,8.1953-11.8457,14.3174-15.4961,6.1191-3.6475,12.9961-5.4741,20.6328-5.4741,11.2275,0,19.9307,3.9321,26.1074,11.7905v-42.1084h23.749ZM708.7584,185.5162c3.8164-4.5479,5.7266-10.5273,5.7266-17.9385,0-7.5215-1.9102-13.585-5.7266-18.1909-3.8184-4.603-8.9268-6.9058-15.3271-6.9058s-11.5381,2.3027-15.4121,6.9058c-3.874,4.606-5.8115,10.6118-5.8115,18.022s1.9375,13.4199,5.8115,18.0225c3.874,4.6064,9.0107,6.9062,15.4121,6.9062s11.5088-2.2734,15.3271-6.8213Z"/>
          <path class="uuid-c7d7d313-e707-4cb9-b21b-164aa487c327" d="M901.0487,190.6529v20.0439h-12.1279c-10.8926,0-16.2275-4.7158-16.001-14.1484-3.1455,4.9424-7.0186,8.7031-11.6221,11.2852-4.6055,2.584-10.1641,3.874-16.6748,3.874-9.6592,0-17.4326-2.2158-23.3281-6.6533-5.8955-4.4346-8.8428-10.6953-8.8428-18.7803,0-9.2061,3.3945-16.3096,10.1904-21.3066,6.792-4.9951,16.6455-7.4961,29.5596-7.4961h17.1807v-4.2109c0-3.9287-1.4609-7.0449-4.3789-9.3477-2.9219-2.3003-6.8506-3.4531-11.791-3.4531-4.3789,0-7.9746.9556-10.7793,2.8638-2.8086,1.9106-4.4932,4.4922-5.0537,7.7485h-22.9062c.7842-8.8696,4.7158-15.7495,11.79-20.6338,7.0742-4.8848,16.4482-7.3271,28.1289-7.3271,12.2373,0,21.6982,2.6953,28.3809,8.085,6.6797,5.3901,10.0215,13.1958,10.0215,23.4121v30.4873c0,2.1338.4473,3.5947,1.3477,4.3789.8975.7871,2.2998,1.1787,4.2109,1.1787h2.6953ZM869.3827,173.3042h-17.3486c-4.9424,0-8.7881.9844-11.5381,2.9482-2.7529,1.9658-4.126,4.7451-4.126,8.3369,0,3.0322,1.1494,5.4482,3.4521,7.2432,2.3008,1.7969,5.416,2.6943,9.3486,2.6943,6.1738,0,11.0586-1.7686,14.6533-5.3057,3.5928-3.5371,5.4453-8.2793,5.5586-14.2324v-1.6846Z"/>
          <path class="uuid-c7d7d313-e707-4cb9-b21b-164aa487c327" d="M980.8837,128.4165c6.0635,3.5371,10.8066,8.6479,14.2324,15.3276,3.4238,6.6821,5.1377,14.5142,5.1377,23.4966,0,8.7588-1.7139,16.5068-5.1377,23.2441-3.4258,6.7373-8.1689,11.959-14.2324,15.6641-6.0635,3.7061-12.9141,5.5586-20.5488,5.5586-6.0635,0-11.3428-1.1504-15.833-3.4531-4.4922-2.2998-8.1982-5.416-11.1162-9.3477l-2.3584,11.79h-20.7178v-117.9038h23.75v42.2769c6.624-7.9717,15.3271-11.959,26.1064-11.959,7.748,0,14.6543,1.7686,20.7178,5.3057ZM970.2724,185.4312c3.9297-4.6025,5.8955-10.6113,5.8955-18.0225s-1.9658-13.416-5.8955-18.022c-3.9316-4.603-9.0957-6.9058-15.4961-6.9058s-11.5117,2.2739-15.3271,6.8218c-3.8193,4.5474-5.7266,10.5269-5.7266,17.938,0,7.5244,1.9072,13.5879,5.7266,18.1904,3.8154,4.6064,8.9268,6.9062,15.3271,6.9062s11.5645-2.2998,15.4961-6.9062Z"/>
          <g>
            <path class="uuid-c7d7d313-e707-4cb9-b21b-164aa487c327" d="M798.1703,98.4623l-4.6763,11.8559c-.2612.6624-.3953,1.3681-.3953,2.0802v76.486c0,8.9014-7.2419,16.1432-16.1433,16.1432-.197,0-.3958-.0036-.5942-.0106-8.5737-.3049-15.5491-7.7765-15.5491-16.6554v-89.8992h37.3582M806.5009,92.793h-51.3579v95.5685c0,11.8274,9.197,21.9008,21.0168,22.3211.2659.0095.532.0142.7957.0142,12.0474,0,21.8125-9.7654,21.8125-21.8125v-76.486l7.7329-19.6053h0Z"/>
            <rect class="uuid-c7d7d313-e707-4cb9-b21b-164aa487c327" x="758.08" y="122.4832" width="18.876" height="5.6689"/>
            <rect class="uuid-c7d7d313-e707-4cb9-b21b-164aa487c327" x="758.08" y="138.3748" width="18.876" height="5.6689"/>
            <rect class="uuid-c7d7d313-e707-4cb9-b21b-164aa487c327" x="758.08" y="106.5916" width="18.876" height="5.6689"/>
            <rect class="uuid-c7d7d313-e707-4cb9-b21b-164aa487c327" x="758.08" y="154.2664" width="18.876" height="5.6689"/>
            <rect class="uuid-c7d7d313-e707-4cb9-b21b-164aa487c327" x="758.08" y="170.158" width="18.876" height="5.6689"/>
            <rect class="uuid-c7d7d313-e707-4cb9-b21b-164aa487c327" x="758.08" y="186.0501" width="18.876" height="5.6689"/>
          </g>
        </g>
      </g>
    </g>
  </g>
</svg>